<svg width="188" height="30" viewBox="0 0 188 30" fill="none" xmlns="http://www.w3.org/2000/svg">
<path d="M8.89937 10.7179H0L9.39378 29.9999H18.2932L8.89937 10.7179Z" fill="#0B92D2"/>
<path d="M27.1926 5.7738H18.2932L28.3462 29.9999H37.2456L27.1926 5.7738Z" fill="#137BC0"/>
<path d="M18.2931 5.7738H27.1925L18.2931 29.9999H9.39376L18.2931 5.7738Z" fill="#0E763F"/>
<path fill-rule="evenodd" clip-rule="evenodd" d="M13.2195 19.5854L9.3938 29.9998H18.2932L13.2195 19.5854Z" fill="#FFD100"/>
<path fill-rule="evenodd" clip-rule="evenodd" d="M9.3938 29.9998H18.2932L13.2195 19.5854L9.3938 29.9998Z" fill="#FFD100"/>
<path d="M38.3992 0.500122H47.2986L37.0808 29.9999H28.1814L38.3992 0.500122Z" fill="#E20613"/>
<path fill-rule="evenodd" clip-rule="evenodd" d="M32.3051 18.0944L28.2564 29.7835L28.3462 30H37.2456L37.1557 29.7835L32.3051 18.0944Z" fill="#0E4B9C"/>
<path fill-rule="evenodd" clip-rule="evenodd" d="M37.0808 30L37.1557 29.7835L32.3051 18.0944L28.2564 29.7835L28.1814 30H37.0808Z" fill="#0E4B9C"/>
<path d="M61.8801 13.104H55V9.232H73.7359V13.104H66.8559V29.7653H61.8801V13.104Z" fill="white"/>
<path d="M82.2585 30C80.518 30 78.9516 29.6578 77.5592 28.9733C76.1873 28.2693 75.1123 27.3013 74.3341 26.0693C73.556 24.8373 73.167 23.4391 73.167 21.8747C73.167 20.3102 73.556 18.912 74.3341 17.68C75.1123 16.448 76.1873 15.4898 77.5592 14.8053C78.9516 14.1013 80.518 13.7493 82.2585 13.7493C83.999 13.7493 85.5552 14.1013 86.9272 14.8053C88.2991 15.4898 89.3741 16.448 90.1522 17.68C90.9303 18.912 91.3193 20.3102 91.3193 21.8747C91.3193 23.4391 90.9303 24.8373 90.1522 26.0693C89.3741 27.3013 88.2991 28.2693 86.9272 28.9733C85.5552 29.6578 83.999 30 82.2585 30ZM82.2585 26.2453C83.4871 26.2453 84.4905 25.8542 85.2686 25.072C86.0671 24.2702 86.4664 23.2044 86.4664 21.8747C86.4664 20.5449 86.0671 19.4889 85.2686 18.7067C84.4905 17.9049 83.4871 17.504 82.2585 17.504C81.0299 17.504 80.0164 17.9049 79.2178 18.7067C78.4192 19.4889 78.0199 20.5449 78.0199 21.8747C78.0199 23.2044 78.4192 24.2702 79.2178 25.072C80.0164 25.8542 81.0299 26.2453 82.2585 26.2453Z" fill="white"/>
<path d="M101.617 23.576L99.3135 25.7467V29.7653H94.5221V8H99.3135V20.32L106.316 13.984H112.029L105.149 20.672L112.644 29.7653H106.839L101.617 23.576Z" fill="white"/>
<path d="M124.722 13.7493C126.77 13.7493 128.418 14.336 129.667 15.5093C130.937 16.6827 131.572 18.4231 131.572 20.7307V29.7653H126.78V21.4347C126.78 20.1831 126.493 19.2542 125.92 18.648C125.347 18.0222 124.517 17.7093 123.432 17.7093C122.224 17.7093 121.262 18.0711 120.545 18.7947C119.828 19.4987 119.47 20.5547 119.47 21.9627V29.7653H114.679V13.984H119.255V15.832C119.89 15.1671 120.678 14.6587 121.62 14.3067C122.562 13.9351 123.596 13.7493 124.722 13.7493Z" fill="white"/>
<path d="M152.281 21.9333C152.281 21.992 152.251 22.4027 152.189 23.1653H139.688C139.914 24.1431 140.446 24.9156 141.286 25.4827C142.125 26.0498 143.169 26.3333 144.418 26.3333C145.278 26.3333 146.036 26.216 146.691 25.9813C147.367 25.7271 147.992 25.336 148.565 24.808L151.114 27.448C149.558 29.1493 147.285 30 144.296 30C142.432 30 140.784 29.6578 139.351 28.9733C137.917 28.2693 136.811 27.3013 136.033 26.0693C135.255 24.8373 134.866 23.4391 134.866 21.8747C134.866 20.3298 135.245 18.9413 136.003 17.7093C136.781 16.4578 137.835 15.4898 139.166 14.8053C140.518 14.1013 142.023 13.7493 143.681 13.7493C145.299 13.7493 146.763 14.0818 148.074 14.7467C149.384 15.4116 150.408 16.3698 151.145 17.6213C151.903 18.8533 152.281 20.2907 152.281 21.9333ZM143.712 17.2107C142.627 17.2107 141.716 17.504 140.978 18.0907C140.241 18.6773 139.791 19.4791 139.627 20.496H147.766C147.603 19.4987 147.152 18.7067 146.415 18.12C145.678 17.5138 144.777 17.2107 143.712 17.2107Z" fill="white"/>
<path d="M160.048 16.0667C160.621 15.304 161.389 14.7271 162.352 14.336C163.334 13.9449 164.461 13.7493 165.73 13.7493V17.9733C165.198 17.9342 164.839 17.9147 164.655 17.9147C163.283 17.9147 162.208 18.2862 161.43 19.0293C160.652 19.7529 160.263 20.848 160.263 22.3147V29.7653H155.471V13.984H160.048V16.0667Z" fill="white"/>
<path d="M174.198 30C172.827 30 171.485 29.8436 170.175 29.5307C168.864 29.1982 167.82 28.7876 167.042 28.2987L168.639 25.0133C169.376 25.4631 170.267 25.8347 171.311 26.128C172.356 26.4018 173.379 26.5387 174.383 26.5387C176.41 26.5387 177.424 26.0596 177.424 25.1013C177.424 24.6516 177.147 24.3289 176.594 24.1333C176.041 23.9378 175.192 23.7716 174.045 23.6347C172.693 23.4391 171.577 23.2142 170.697 22.96C169.817 22.7058 169.049 22.256 168.393 21.6107C167.759 20.9653 167.441 20.0462 167.441 18.8533C167.441 17.856 167.738 16.976 168.332 16.2133C168.946 15.4311 169.827 14.8249 170.973 14.3947C172.141 13.9644 173.513 13.7493 175.089 13.7493C176.256 13.7493 177.413 13.8764 178.56 14.1307C179.727 14.3653 180.69 14.6978 181.447 15.128L179.85 18.384C178.396 17.6018 176.809 17.2107 175.089 17.2107C174.065 17.2107 173.298 17.3476 172.786 17.6213C172.274 17.8951 172.018 18.2471 172.018 18.6773C172.018 19.1662 172.294 19.5084 172.847 19.704C173.4 19.8996 174.28 20.0853 175.489 20.2613C176.84 20.4764 177.946 20.7111 178.806 20.9653C179.666 21.2 180.413 21.64 181.048 22.2853C181.683 22.9307 182 23.8302 182 24.984C182 25.9618 181.693 26.832 181.079 27.5947C180.464 28.3573 179.563 28.9538 178.376 29.384C177.209 29.7947 175.816 30 174.198 30Z" fill="white"/>
</svg>
