<svg width="890" height="992" viewBox="0 0 890 992" fill="none" xmlns="http://www.w3.org/2000/svg">
<path fill-rule="evenodd" clip-rule="evenodd" d="M576.071 -121.746C715.069 -144.885 845.108 -292.938 972.977 -233.688C1099.89 -174.881 1080.92 13.3567 1140.67 139.87C1198.72 262.778 1321.69 360.256 1317.66 496.125C1313.43 638.287 1227.34 769.607 1119.21 861.938C1015.28 950.692 876.511 981.142 740.1 989.324C613.135 996.939 475.032 987.753 377.18 906.445C285.638 830.38 310.669 684.523 250.016 582.098C181.11 465.735 16.7822 407.902 2.32895 273.434C-12.7579 133.071 60.3612 -21.0598 176.582 -101.11C289.158 -178.65 441.241 -99.3004 576.071 -121.746Z" fill="#D9F4FF"/>
</svg>
