<svg width="71" height="20" viewBox="0 0 71 20" fill="none" xmlns="http://www.w3.org/2000/svg">
<path d="M0.488 19V7H4.112V8.224C4.8 7.232 5.912 6.736 7.448 6.736C8.904 6.736 10.04 7.224 10.856 8.2C11.688 9.176 12.104 10.464 12.104 12.064V19H8.48V12.688C8.48 10.912 7.832 10.024 6.536 10.024C5.816 10.024 5.232 10.288 4.784 10.816C4.336 11.344 4.112 12.128 4.112 13.168V19H0.488ZM18.1175 19.264C16.6615 19.264 15.5415 18.776 14.7575 17.8C13.9735 16.824 13.5815 15.504 13.5815 13.84V7H17.2055V13.216C17.2055 15.056 17.8215 15.976 19.0535 15.976C20.5575 15.976 21.3095 14.928 21.3095 12.832V7H24.9335V19H21.3095V17.776C20.6215 18.768 19.5575 19.264 18.1175 19.264ZM28.0492 19V10.144H25.6492V7H28.0492V5.68C28.0492 4.208 28.5052 3.04 29.4172 2.176C30.3452 1.296 31.4972 0.855999 32.8732 0.855999C33.7372 0.855999 34.4572 0.943999 35.0332 1.12V4.312C34.6972 4.168 34.2652 4.096 33.7372 4.096C33.0012 4.096 32.4732 4.256 32.1532 4.576C31.8332 4.896 31.6732 5.416 31.6732 6.136V7H35.0332V10.144H31.6732V19H28.0492ZM35.6771 19V7H39.3011V8.8C39.4931 8.256 39.8531 7.8 40.3811 7.432C40.9091 7.048 41.5011 6.856 42.1571 6.856C42.5731 6.856 42.9651 6.904 43.3331 7V10.672C42.7731 10.48 42.2371 10.384 41.7251 10.384C40.9571 10.384 40.3571 10.656 39.9251 11.2C39.5091 11.728 39.3011 12.432 39.3011 13.312V19H35.6771ZM48.5488 19.264C47.0928 19.264 45.9728 18.776 45.1888 17.8C44.4048 16.824 44.0128 15.504 44.0128 13.84V7H47.6368V13.216C47.6368 15.056 48.2528 15.976 49.4848 15.976C50.9888 15.976 51.7408 14.928 51.7408 12.832V7H55.3648V19H51.7408V17.776C51.0528 18.768 49.9888 19.264 48.5488 19.264ZM58.9364 5.368C58.3284 5.368 57.8004 5.152 57.3524 4.72C56.9044 4.272 56.6804 3.736 56.6804 3.112C56.6804 2.488 56.9044 1.96 57.3524 1.528C57.8004 1.08 58.3284 0.855999 58.9364 0.855999C59.5764 0.855999 60.1124 1.08 60.5444 1.528C60.9924 1.96 61.2164 2.488 61.2164 3.112C61.2164 3.736 60.9924 4.272 60.5444 4.72C60.1124 5.152 59.5764 5.368 58.9364 5.368ZM57.1364 19V7H60.7604V19H57.1364ZM68.6658 19.144C67.2578 19.144 66.0978 18.76 65.1858 17.992C64.2898 17.208 63.8418 16.08 63.8418 14.608V10.144H61.4418V7H63.8418V3.664H67.4658V7H70.8258V10.144H67.4658V13.864C67.4658 14.584 67.6258 15.104 67.9458 15.424C68.2658 15.744 68.7858 15.904 69.5058 15.904C70.0498 15.904 70.4898 15.832 70.8258 15.688V18.904C70.2978 19.064 69.5778 19.144 68.6658 19.144Z" fill="black"/>
</svg>
